<?xml version="1.0" encoding="UTF-8" standalone="no"?>
<!-- Created with Inkscape (http://www.inkscape.org/) -->

<svg
   xmlns:dc="http://purl.org/dc/elements/1.1/"
   xmlns:cc="http://creativecommons.org/ns#"
   xmlns:rdf="http://www.w3.org/1999/02/22-rdf-syntax-ns#"
   xmlns:svg="http://www.w3.org/2000/svg"
   xmlns="http://www.w3.org/2000/svg"
   xmlns:sodipodi="http://sodipodi.sourceforge.net/DTD/sodipodi-0.dtd"
   xmlns:inkscape="http://www.inkscape.org/namespaces/inkscape"
   width="210mm"
   height="297mm"
   viewBox="0 0 210 297"
   version="1.1"
   id="svg8"
   inkscape:version="0.92.1 r15371"
   sodipodi:docname="pot.svg">
  <defs
     id="defs2" />
  <sodipodi:namedview
     id="base"
     pagecolor="#ffffff"
     bordercolor="#666666"
     borderopacity="1.0"
     inkscape:pageopacity="0.0"
     inkscape:pageshadow="2"
     inkscape:zoom="5.811726"
     inkscape:cx="182.77468"
     inkscape:cy="857.01407"
     inkscape:document-units="mm"
     inkscape:current-layer="layer1"
     showgrid="false"
     objecttolerance="3"
     guidetolerance="3"
     inkscape:window-width="1440"
     inkscape:window-height="838"
     inkscape:window-x="-8"
     inkscape:window-y="-8"
     inkscape:window-maximized="1" />
  <metadata
     id="metadata5">
    <rdf:RDF>
      <cc:Work
         rdf:about="">
        <dc:format>image/svg+xml</dc:format>
        <dc:type
           rdf:resource="http://purl.org/dc/dcmitype/StillImage" />
        <dc:title></dc:title>
      </cc:Work>
    </rdf:RDF>
  </metadata>
  <g
     inkscape:label="Layer 1"
     inkscape:groupmode="layer"
     id="layer1"
     style="display:inline">
    <ellipse
       style="opacity:1;fill:#f2f2f2;fill-opacity:1;stroke:#808080;stroke-width:0.19932842;stroke-linecap:butt;stroke-linejoin:round;stroke-miterlimit:10;stroke-dasharray:none;stroke-opacity:0.98431373;paint-order:normal"
       id="path4491"
       cx="51.066044"
       cy="65.842331"
       rx="23.147701"
       ry="2.833195" />
  </g>
  <g
     inkscape:groupmode="layer"
     id="layer4"
     inkscape:label="plant 2"
     style="display:inline">
    <path
       style="fill:#87dea2;fill-opacity:1;stroke:#ffdea2;stroke-width:0.99999994px;stroke-linecap:butt;stroke-linejoin:miter;stroke-opacity:1"
       d="M 148.99023 80.775391 C 149.27923 80.66692 149.61176 80.673959 149.88867 80.541016 C 151.07247 79.972688 152.13901 79.186802 153.02344 78.238281 C 153.90786 77.289761 154.61077 76.179011 155.06836 74.958984 C 155.52595 73.738958 155.73733 72.410189 155.64062 71.027344 C 155.55856 69.853916 155.24319 68.726315 154.74023 67.703125 C 154.23727 66.679935 153.54645 65.760526 152.7168 65 C 151.88715 64.239474 150.9176 63.639343 149.85547 63.253906 C 148.79334 62.868469 147.63986 62.698703 146.43945 62.800781 C 145.44831 62.885065 144.49559 63.165965 143.63281 63.603516 C 143.11917 63.864005 142.71984 64.277522 142.2793 64.640625 C 143.80558 68.645873 145.32054 72.514444 146.79883 75.96875 C 147.18551 75.858878 147.58419 75.778122 147.93164 75.582031 C 148.47487 75.275451 148.95928 74.872678 149.34961 74.398438 C 149.73994 73.924197 150.03527 73.380349 150.20312 72.791016 C 150.37098 72.201683 150.41128 71.567874 150.28711 70.916016 C 150.11789 70.027642 149.59507 69.19922 148.88086 68.662109 C 148.52376 68.393554 148.11787 68.197681 147.68555 68.103516 C 147.25323 68.00935 146.79302 68.016356 146.32617 68.154297 C 145.80419 68.308525 145.29122 68.698199 144.99023 69.185547 C 144.83974 69.429221 144.7427 69.697254 144.72461 69.972656 C 144.70652 70.248059 144.76784 70.529971 144.93359 70.802734 C 145.05592 71.004042 145.38555 71.212202 145.6875 71.269531 C 145.6875 71.269531 145.6875 71.269531 145.6875 71.269531 C 145.38555 71.212202 145.05592 71.004042 144.93359 70.802734 C 144.76784 70.529971 144.70652 70.248059 144.72461 69.972656 C 144.7427 69.697254 144.83974 69.429221 144.99023 69.185547 C 145.29122 68.698199 145.80419 68.308525 146.32617 68.154297 C 146.79302 68.016356 147.25323 68.00935 147.68555 68.103516 C 148.11787 68.197681 148.52376 68.393554 148.88086 68.662109 C 149.59507 69.19922 150.11789 70.027642 150.28711 70.916016 C 150.41128 71.567874 150.37098 72.201683 150.20312 72.791016 C 150.03527 73.380349 149.73994 73.924197 149.34961 74.398438 C 148.95928 74.872678 148.47487 75.275451 147.93164 75.582031 C 147.58419 75.778122 147.18551 75.858878 146.79883 75.96875 C 147.54246 77.706402 148.25844 79.162477 148.99023 80.775391 z "
       id="path6041"
       transform="scale(0.26458333)" />
    <path
       style="fill:#87dea2;fill-opacity:1;stroke:#ffdea2;stroke-width:0.99999994px;stroke-linecap:butt;stroke-linejoin:miter;stroke-opacity:1"
       d="M 183.5918 139.03125 C 183.68197 138.8748 183.84 138.76803 183.91992 138.60547 C 184.41843 137.59148 184.71134 136.46221 184.74023 135.25781 C 184.76409 134.26338 184.58931 133.28605 184.24805 132.38086 C 183.90679 131.47567 183.39926 130.64186 182.76172 129.93164 C 182.12418 129.22142 181.35717 128.63414 180.49219 128.22461 C 179.6272 127.81508 178.66421 127.5832 177.64062 127.58008 C 177.36207 127.57923 177.10923 127.69833 176.83594 127.73438 C 179.13199 131.26863 181.42526 134.90007 183.5918 139.03125 z "
       id="path6039"
       transform="scale(0.26458333)" />
    <path
       style="fill:#87dea2;fill-opacity:1;stroke:#ffdea2;stroke-width:0.99999994px;stroke-linecap:butt;stroke-linejoin:miter;stroke-opacity:1"
       d="M 186.23828 144.35156 C 186.49715 144.08152 186.79058 143.84451 187.02734 143.55469 C 187.6003 142.85333 188.10441 142.09646 188.53125 141.29102 C 188.95809 140.48558 189.30732 139.63118 189.56445 138.73828 C 189.82158 137.84539 189.98697 136.91295 190.05078 135.94922 C 190.10766 135.09017 190.07674 134.23961 189.96484 133.40625 C 189.85295 132.57289 189.66021 131.75688 189.39453 130.9707 C 188.86318 129.39835 188.03889 127.94213 186.98242 126.6875 C 185.92596 125.43287 184.63736 124.38019 183.17578 123.61523 C 182.44499 123.23276 181.6709 122.92117 180.86133 122.69336 C 180.05176 122.46555 179.20733 122.32119 178.33398 122.26953 C 176.79676 122.17861 175.28626 122.40283 173.88086 122.88672 C 173.8384 122.90134 173.80789 122.93803 173.76562 122.95312 C 174.81648 124.4947 175.81258 126.15915 176.83594 127.73438 C 177.10923 127.69833 177.36207 127.57923 177.64062 127.58008 C 178.66421 127.5832 179.6272 127.81508 180.49219 128.22461 C 181.35717 128.63414 182.12418 129.22142 182.76172 129.93164 C 183.39926 130.64186 183.90679 131.47567 184.24805 132.38086 C 184.58931 133.28605 184.76409 134.26338 184.74023 135.25781 C 184.71134 136.46221 184.41843 137.59148 183.91992 138.60547 C 183.84 138.76803 183.68197 138.8748 183.5918 139.03125 C 184.48203 140.72877 185.36844 142.48281 186.23828 144.35156 z "
       id="path6037"
       transform="scale(0.26458333)" />
    <path
       style="fill:#87dea2;fill-opacity:1;stroke:#ffdea2;stroke-width:0.99999994px;stroke-linecap:butt;stroke-linejoin:miter;stroke-opacity:1"
       d="M 204.60742 176.5293 C 202.90698 176.39709 201.27494 175.98307 199.77148 175.31055 C 198.48385 174.73457 197.35138 173.89265 196.27539 172.99219 C 199.06684 183.40691 201.76828 195.78228 204.375 211.46289 C 204.375 211.46289 206.44083 195.90698 204.60742 176.5293 z "
       id="path6035"
       transform="scale(0.26458333)" />
    <path
       style="fill:#87dea2;fill-opacity:1;stroke:#ffdea2;stroke-width:0.99999994px;stroke-linecap:butt;stroke-linejoin:miter;stroke-opacity:1"
       d="M 201.83008 158.78516 C 201.80937 158.82839 201.7657 158.85657 201.74609 158.90039 C 201.42572 159.61655 201.25558 160.41122 201.2793 161.25391 C 201.29709 161.88616 201.43978 162.50676 201.68555 163.08008 C 201.93132 163.65339 202.27994 164.17767 202.70898 164.61719 C 202.78744 164.69756 202.90067 164.73027 202.98438 164.80469 C 202.6284 162.80255 202.29143 160.80779 201.83008 158.78516 z "
       id="path6033"
       transform="scale(0.26458333)" />
    <path
       style="fill:#87dea2;fill-opacity:1;stroke:#ffdea2;stroke-width:0.99999994px;stroke-linecap:butt;stroke-linejoin:miter;stroke-opacity:1"
       d="M 200.13867 152.64062 C 200.05868 152.70515 199.94933 152.7264 199.87109 152.79297 C 198.75271 153.74461 197.81681 154.90448 197.14062 156.2168 C 196.46444 157.52911 196.04756 158.99462 195.96875 160.56055 C 195.90049 161.91687 196.10852 163.24976 196.54492 164.48828 C 196.98132 165.7268 197.64728 166.87131 198.49414 167.85352 C 199.341 168.83572 200.36814 169.65481 201.53125 170.24219 C 202.2755 170.61804 203.15008 170.71121 203.99219 170.87891 C 203.72594 168.87338 203.34886 166.85467 202.98438 164.80469 C 202.90067 164.73027 202.78744 164.69756 202.70898 164.61719 C 202.27994 164.17767 201.93132 163.65339 201.68555 163.08008 C 201.43978 162.50676 201.29709 161.88616 201.2793 161.25391 C 201.25558 160.41122 201.42572 159.61655 201.74609 158.90039 C 201.7657 158.85657 201.80937 158.82839 201.83008 158.78516 C 201.36071 156.72739 200.72914 154.69699 200.13867 152.64062 z "
       id="path6031"
       transform="scale(0.26458333)" />
    <path
       style="fill:#87dea2;fill-opacity:1;stroke:#ffdea2;stroke-width:0.99999994px;stroke-linecap:butt;stroke-linejoin:miter;stroke-opacity:1"
       d="M 171.24219 94.091797 C 171.07046 94.331542 170.81647 94.513342 170.67383 94.769531 C 170.20324 95.614735 169.89405 96.540878 169.76367 97.486328 C 169.63329 98.431778 169.68166 99.397408 169.92773 100.32227 C 170.17381 101.24712 170.61661 102.13064 171.27539 102.91406 C 171.79889 103.53662 172.43726 104.04349 173.13867 104.41797 C 173.84008 104.79245 174.60468 105.03461 175.38281 105.12891 C 176.08897 105.21448 176.80038 105.13721 177.49023 104.9668 C 175.47638 101.37258 173.35822 97.768602 171.24219 94.091797 z "
       id="path6029"
       transform="scale(0.26458333)" />
    <path
       style="fill:#87dea2;fill-opacity:1;stroke:#ffdea2;stroke-width:0.99999994px;stroke-linecap:butt;stroke-linejoin:miter;stroke-opacity:1"
       d="M 168.4082 89.158203 C 168.19956 89.359768 167.955 89.530368 167.76172 89.744141 C 167.19781 90.367852 166.70005 91.041327 166.27148 91.751953 C 165.41436 93.173206 164.83594 94.742472 164.56055 96.359375 C 164.28516 97.976278 164.31372 99.640129 164.67383 101.25 C 164.85388 102.05494 165.11584 102.84615 165.46484 103.61133 C 165.81385 104.3765 166.24875 105.11633 166.77344 105.81641 C 167.69696 107.04865 168.84391 108.05608 170.12109 108.81641 C 171.39828 109.57673 172.80699 110.08904 174.25586 110.32812 C 175.70473 110.56721 177.19422 110.53263 178.63281 110.20117 C 179.15091 110.0818 179.5989 109.71139 180.09961 109.51367 C 179.2836 108.03721 178.332 106.46913 177.49023 104.9668 C 176.80038 105.13721 176.08897 105.21448 175.38281 105.12891 C 174.60468 105.03461 173.84008 104.79245 173.13867 104.41797 C 172.43726 104.04349 171.79889 103.53662 171.27539 102.91406 C 170.61661 102.13064 170.17381 101.24712 169.92773 100.32227 C 169.68166 99.397408 169.63329 98.431778 169.76367 97.486328 C 169.89405 96.540878 170.20324 95.614735 170.67383 94.769531 C 170.81647 94.513342 171.07046 94.331542 171.24219 94.091797 C 170.28227 92.423841 169.37962 90.829335 168.4082 89.158203 z "
       id="path6027"
       transform="scale(0.26458333)" />
    <path
       style="fill:#87dea2;fill-opacity:1;stroke:#ffdea2;stroke-width:0.99999994px;stroke-linecap:butt;stroke-linejoin:miter;stroke-opacity:1"
       d="M 160.42188 75.253906 C 160.34692 75.546411 160.3892 75.869818 160.29688 76.15625 C 159.78346 77.749166 159.00576 79.244705 158.01367 80.582031 C 157.02158 81.919357 155.81532 83.099569 154.44336 84.066406 C 153.47667 84.747644 152.34199 85.168504 151.22852 85.617188 C 159.44989 102.69407 166.89536 112.87459 173.76562 122.95312 C 173.80789 122.93803 173.8384 122.90134 173.88086 122.88672 C 175.28626 122.40283 176.79676 122.17861 178.33398 122.26953 C 179.20733 122.32119 180.05176 122.46555 180.86133 122.69336 C 181.6709 122.92117 182.44499 123.23276 183.17578 123.61523 C 184.63736 124.38019 185.92596 125.43287 186.98242 126.6875 C 188.03889 127.94213 188.86318 129.39835 189.39453 130.9707 C 189.66021 131.75688 189.85295 132.57289 189.96484 133.40625 C 190.07674 134.23961 190.10766 135.09017 190.05078 135.94922 C 189.98697 136.91295 189.82158 137.84539 189.56445 138.73828 C 189.30732 139.63118 188.95809 140.48558 188.53125 141.29102 C 188.10441 142.09646 187.6003 142.85333 187.02734 143.55469 C 186.79058 143.84451 186.49715 144.08152 186.23828 144.35156 C 189.73571 151.86542 193.07308 161.04455 196.27539 172.99219 C 197.35138 173.89265 198.48385 174.73457 199.77148 175.31055 C 201.27494 175.98307 202.90698 176.39709 204.60742 176.5293 C 204.43126 174.66742 204.24758 172.80265 203.99219 170.87891 C 203.15008 170.71121 202.2755 170.61804 201.53125 170.24219 C 200.36814 169.65481 199.341 168.83572 198.49414 167.85352 C 197.64728 166.87131 196.98132 165.7268 196.54492 164.48828 C 196.10852 163.24976 195.90049 161.91687 195.96875 160.56055 C 196.04756 158.99462 196.46444 157.52911 197.14062 156.2168 C 197.81681 154.90448 198.75271 153.74461 199.87109 152.79297 C 199.94933 152.7264 200.05868 152.70515 200.13867 152.64062 C 199.47827 150.34072 198.90414 148.02964 198.07617 145.76172 C 194.97928 137.27892 188.12058 124.0265 180.09961 109.51367 C 179.5989 109.71139 179.15091 110.0818 178.63281 110.20117 C 177.19422 110.53263 175.70473 110.56721 174.25586 110.32812 C 172.80699 110.08904 171.39828 109.57673 170.12109 108.81641 C 168.84391 108.05608 167.69696 107.04865 166.77344 105.81641 C 166.24875 105.11633 165.81385 104.3765 165.46484 103.61133 C 165.11584 102.84615 164.85388 102.05494 164.67383 101.25 C 164.31372 99.640129 164.28516 97.976278 164.56055 96.359375 C 164.83594 94.742472 165.41436 93.173206 166.27148 91.751953 C 166.70005 91.041327 167.19781 90.367852 167.76172 89.744141 C 167.955 89.530368 168.19956 89.359768 168.4082 89.158203 C 165.67054 84.448566 163.16055 79.857974 160.42188 75.253906 z "
       id="path6025"
       transform="scale(0.26458333)" />
    <path
       style="fill:#87dea2;fill-opacity:1;stroke:#ffdea2;stroke-width:0.99999994px;stroke-linecap:butt;stroke-linejoin:miter;stroke-opacity:1"
       d="M 149.82422 57.753906 C 149.67128 57.721763 149.53162 57.653753 149.37695 57.626953 C 148.46141 57.468318 147.51574 57.404083 146.55078 57.445312 C 145.69063 57.482064 144.84753 57.606852 144.03125 57.808594 C 143.21497 58.010335 142.42455 58.289186 141.67188 58.638672 C 141.1884 58.863161 140.83921 59.278988 140.38867 59.558594 C 141.02396 61.306104 141.6523 62.995277 142.2793 64.640625 C 142.71984 64.277522 143.11917 63.864005 143.63281 63.603516 C 144.49559 63.165965 145.44831 62.885065 146.43945 62.800781 C 147.63986 62.698703 148.79334 62.868469 149.85547 63.253906 C 150.9176 63.639343 151.88715 64.239474 152.7168 65 C 153.54645 65.760526 154.23727 66.679935 154.74023 67.703125 C 155.24319 68.726315 155.55856 69.853916 155.64062 71.027344 C 155.73733 72.410189 155.52595 73.738958 155.06836 74.958984 C 154.61077 76.179011 153.90786 77.289761 153.02344 78.238281 C 152.13901 79.186802 151.07247 79.972688 149.88867 80.541016 C 149.61176 80.673959 149.27923 80.66692 148.99023 80.775391 C 149.74017 82.42828 150.4908 84.08485 151.22852 85.617188 C 152.34199 85.168504 153.47667 84.747644 154.44336 84.066406 C 155.81532 83.099569 157.02158 81.919357 158.01367 80.582031 C 159.00576 79.244705 159.78346 77.749166 160.29688 76.15625 C 160.3892 75.869818 160.34692 75.546411 160.42188 75.253906 C 156.46179 68.596486 153.44569 63.69687 149.82422 57.753906 z "
       id="path6023"
       transform="scale(0.26458333)" />
    <path
       style="fill:#87dea2;fill-opacity:1;stroke:#ffdea2;stroke-width:0.99999994px;stroke-linecap:butt;stroke-linejoin:miter;stroke-opacity:1"
       d="M 141.01562 43.291016 C 140.87146 43.344135 140.74171 43.427978 140.5957 43.476562 C 139.72602 43.765953 138.82373 43.974929 137.90234 44.09375 C 136.98607 44.211912 136.04959 44.240741 135.10547 44.173828 C 136.90176 49.775496 138.65562 54.79142 140.38867 59.558594 C 140.83921 59.278988 141.1884 58.863161 141.67188 58.638672 C 142.42455 58.289186 143.21497 58.010335 144.03125 57.808594 C 144.84753 57.606852 145.69063 57.482064 146.55078 57.445312 C 147.51574 57.404083 148.46141 57.468318 149.37695 57.626953 C 149.53162 57.653753 149.67128 57.721763 149.82422 57.753906 C 146.78669 52.769205 143.55438 47.395524 141.01562 43.291016 z "
       id="path6021"
       transform="scale(0.26458333)" />
    <path
       style="fill:#87dea2;fill-opacity:1;stroke:#ffdea2;stroke-width:0.99999994px;stroke-linecap:butt;stroke-linejoin:miter;stroke-opacity:1"
       d="M 131.77539 28.421875 C 131.76574 28.581036 131.68096 28.713908 131.68555 28.876953 C 131.70334 29.509203 131.84603 30.131763 132.0918 30.705078 C 132.33757 31.278393 132.68619 31.802665 133.11523 32.242188 C 133.54428 32.68171 134.05348 33.034755 134.62109 33.265625 C 134.68565 33.291882 134.76601 33.275809 134.83203 33.298828 C 133.54555 31.247546 132.43076 29.459218 131.77539 28.421875 z "
       id="path6019"
       transform="scale(0.26458333)" />
    <path
       style="fill:#87dea2;fill-opacity:1;stroke:#ffdea2;stroke-width:0.99999994px;stroke-linecap:butt;stroke-linejoin:miter;stroke-opacity:1"
       d="M 133.31836 38.224609 C 133.90967 40.143188 134.52101 42.351214 135.10547 44.173828 C 136.04959 44.240741 136.98607 44.211912 137.90234 44.09375 C 138.82373 43.974929 139.72602 43.765953 140.5957 43.476562 C 140.74171 43.427978 140.87146 43.344135 141.01562 43.291016 C 140.09937 41.80967 138.92202 39.836168 138.0918 38.5 C 137.33254 38.675267 136.5812 38.894418 135.7832 38.863281 C 134.89538 38.82864 134.12191 38.488568 133.31836 38.224609 z "
       id="path6017"
       transform="scale(0.26458333)" />
    <path
       style="fill:#87dea2;fill-opacity:1;stroke:#ffdea2;stroke-width:0.99999994px;stroke-linecap:butt;stroke-linejoin:miter;stroke-opacity:1"
       d="M 133.31836 38.224609 C 134.12191 38.488568 134.89538 38.82864 135.7832 38.863281 C 136.5812 38.894418 137.33254 38.675267 138.0918 38.5 C 136.14221 35.362298 136.20402 35.486464 134.83203 33.298828 C 134.76601 33.275809 134.68565 33.291882 134.62109 33.265625 C 134.05348 33.034755 133.54428 32.68171 133.11523 32.242188 C 132.68619 31.802665 132.33757 31.278393 132.0918 30.705078 C 131.84603 30.131763 131.70334 29.509203 131.68555 28.876953 C 131.68096 28.713908 131.76574 28.581036 131.77539 28.421875 C 131.19758 27.507293 129.08203 24.121094 129.08203 24.121094 C 130.52308 29.244099 131.91657 33.676355 133.31836 38.224609 z "
       id="path5687"
       transform="scale(0.26458333)" />
  </g>
  <g
     inkscape:groupmode="layer"
     id="layer5"
     inkscape:label="plant stem"
     style="display:inline">
    <path
       style="display:inline;fill:#dea287;fill-opacity:1;stroke:#ffdea2;stroke-width:0.26458332px;stroke-linecap:butt;stroke-linejoin:miter;stroke-opacity:1"
       d="M 34.12308,6.2456088 C 43.139317,22.556426 54.417759,38.087659 55.49829,72.302738 l -1.287662,2e-6 C 54.728531,43.535205 44.677924,26.849821 34.12308,6.2456088 Z"
       id="path5672"
       inkscape:connector-curvature="0"
       sodipodi:nodetypes="cccc" />
  </g>
  <g
     inkscape:groupmode="layer"
     id="layer3"
     inkscape:label="plant"
     style="display:inline">
    <path
       id="path5684"
       transform="scale(0.26458333)"
       style="fill:#87dea2;fill-opacity:1;stroke:#ffdea2;stroke-width:1.00157481;stroke-linecap:butt;stroke-linejoin:miter;stroke-miterlimit:4;stroke-dasharray:none;stroke-opacity:1"
       d="m 129.08203,24.121094 c 5.68859,6.611993 8.38045,12.393405 9.57617,17.646484 0.68433,-0.158375 1.37318,-0.298214 2.07032,-0.341797 1.71921,-0.107481 3.45636,0.126637 5.10937,0.658203 0.85851,0.276074 1.59199,0.840265 2.39063,1.271485 -5.86207,-6.417874 -12.12925,-12.839353 -19.14649,-19.234375 z m 19.14649,19.234375 c -0.79864,-0.43122 -1.53212,-0.995411 -2.39063,-1.271485 -1.65301,-0.531566 -3.39016,-0.765684 -5.10937,-0.658203 -0.69714,0.04358 -1.38599,0.183422 -2.07032,0.341797 0.4118,1.809099 0.46841,3.477811 0.56836,5.167969 0.61505,-0.224341 1.21269,-0.530394 1.85547,-0.589844 1.06146,-0.09817 2.14222,0.02004 3.17578,0.326172 1.03357,0.30613 2.01978,0.801129 2.89649,1.455078 0.87671,0.653949 1.64348,1.466825 2.23437,2.412109 0.69634,1.113986 1.11008,2.304802 1.26953,3.501954 0.15946,1.197151 0.0651,2.401572 -0.2539,3.541015 -0.319,1.139444 -0.86451,2.213436 -1.60352,3.154297 -0.73901,0.940861 -1.67284,1.748206 -2.77344,2.34961 -1.27068,0.694343 -2.64291,1.075037 -4.0332,1.177734 -1.26178,0.0932 -2.52853,-0.108275 -3.75781,-0.447266 -0.37938,6.826132 0.96544,13.331845 10.12305,20.646485 5.50215,4.394844 10.2426,8.748427 14.65429,13.080078 0.36643,-0.585109 0.75143,-1.150353 1.19727,-1.640625 0.52988,-0.582685 1.11023,-1.096986 1.73047,-1.542969 1.24048,-0.891965 2.63781,-1.508666 4.09765,-1.835937 1.45984,-0.327272 2.98292,-0.364787 4.47266,-0.103516 1.48974,0.26127 2.94716,0.821652 4.27734,1.695312 0.74613,0.490057 1.42289,1.054021 2.0293,1.675782 0.60641,0.62176 1.142,1.301391 1.60547,2.027343 0.92694,1.451904 1.56456,3.085471 1.90039,4.789061 0.33583,1.7036 0.36897,3.47771 0.0879,5.21289 -0.14054,0.86759 -0.3586,1.72633 -0.6582,2.56055 -0.29961,0.83422 -0.68069,1.64463 -1.14258,2.41797 -0.84174,1.40931 -1.89623,2.6147 -3.09961,3.59961 -0.0319,0.0261 -0.0734,0.0348 -0.10547,0.0605 1.44268,2.00809 2.84594,4.01019 4.10352,5.99805 0.75572,-1.24794 1.61373,-2.44457 2.72656,-3.40625 1.31378,-1.13534 2.83962,-2.04319 4.48633,-2.6582 0.82335,-0.30751 1.67766,-0.54252 2.55078,-0.69531 0.2859,-0.05 0.58339,-0.0341 0.87304,-0.0664 -7.9343,-20.326287 -20.41942,-42.288747 -39.28125,-64.564454 0.21802,0.642214 0.58767,1.25468 0.70704,1.910156 0.27859,1.529889 0.2909,3.080033 0.0547,4.585938 -0.23621,1.505905 -0.72204,2.967273 -1.4414,4.314453 -0.71937,1.34718 -1.67095,2.581051 -2.8418,3.634766 -1.1973,1.023567 -2.18212,2.232115 -2.93555,3.560547 -0.75343,1.328431 -1.2763,2.775986 -1.55078,4.27539 -0.27447,1.499404 -0.30011,3.051406 -0.0605,4.587891 0.23956,1.536485 0.74451,3.058372 1.5332,4.498047 0.43277,0.789999 0.93838,1.528063 1.50586,2.208984 0.56748,0.680921 1.19621,1.30455 1.87304,1.865234 1.35367,1.121369 2.90012,1.990978 4.53907,2.564454 1.63894,0.573475 3.3704,0.85079 5.09179,0.787109 0.8607,-0.03184 1.71923,-0.149555 2.5625,-0.357422 0.84328,-0.207866 1.67216,-0.50534 2.47266,-0.900391 1.42711,-0.704281 2.64897,-1.678009 3.62891,-2.830078 0.97993,-1.152068 1.71842,-2.483763 2.17578,-3.908203 0.45735,-1.424439 0.6328,-2.941497 0.49219,-4.46289 -0.0703,-0.760697 -0.21919,-1.521394 -0.45313,-2.273438 -0.23394,-0.752044 -0.55199,-1.495332 -0.95898,-2.216797 -0.71642,-1.269863 -1.6687,-2.372936 -2.77539,-3.271484 -1.1067,-0.898548 -2.36718,-1.592086 -3.69922,-2.044922 -1.33204,-0.452836 -2.73645,-0.664929 -4.12891,-0.597656 -1.39246,0.06727 -2.77456,0.414393 -4.0625,1.076172 -1.11555,0.573192 -2.0693,1.355598 -2.83203,2.277343 -0.76273,0.921745 -1.33374,1.982326 -1.68164,3.113282 -0.3479,1.130955 -0.47268,2.332379 -0.34375,3.533203 0.12893,1.200823 0.51192,2.401854 1.17969,3.533203 0.56663,0.960018 1.31209,1.792697 2.17187,2.46875 0.85978,0.676053 1.83394,1.195003 2.85938,1.527344 1.02543,0.33234 2.1024,0.477369 3.16601,0.40625 1.06362,-0.07112 2.11359,-0.358251 3.08789,-0.892579 0.80446,-0.441171 1.49111,-1.033119 2.03711,-1.724609 0.546,-0.691489 0.95082,-1.482414 1.18945,-2.320312 0.23864,-0.837899 0.31099,-1.723117 0.19336,-2.603516 -0.11762,-0.880399 -0.42449,-1.757182 -0.94726,-2.576172 -0.41544,-0.650818 -0.95334,-1.213643 -1.56641,-1.667969 -0.61307,-0.454325 -1.30191,-0.799517 -2.02148,-1.011718 -0.71957,-0.212202 -1.47015,-0.292351 -2.20508,-0.216797 -0.73494,0.07555 -1.45412,0.307857 -2.11328,0.716797 -0.49455,0.306819 -0.91548,0.708293 -1.2461,1.169922 -0.33061,0.461628 -0.57119,0.983206 -0.70117,1.529296 -0.12997,0.546091 -0.15032,1.115578 -0.043,1.675782 0.10736,0.560203 0.34323,1.111264 0.72461,1.615234 0.51977,0.686823 1.31355,1.190132 2.14649,1.376953 0.41647,0.09341 0.84364,0.107286 1.25,0.02539 0.40635,-0.0819 0.7916,-0.260042 1.1289,-0.550782 0.37712,-0.325066 0.64858,-0.845346 0.69727,-1.36914 0.0487,-0.523794 -0.12466,-1.049871 -0.63672,-1.386719 -0.18898,-0.124287 -0.55764,-0.177606 -0.83789,-0.113281 0,0 0,0 0,0 0.28025,-0.06432 0.64891,-0.01101 0.83789,0.113281 0.51206,0.336848 0.68541,0.862925 0.63672,1.386719 -0.0487,0.523794 -0.32015,1.044074 -0.69727,1.36914 -0.3373,0.29074 -0.72255,0.468886 -1.1289,0.550782 -0.40636,0.0819 -0.83353,0.06802 -1.25,-0.02539 -0.83294,-0.186821 -1.62672,-0.69013 -2.14649,-1.376953 -0.38138,-0.50397 -0.61725,-1.055031 -0.72461,-1.615234 -0.10735,-0.560204 -0.087,-1.129691 0.043,-1.675782 0.12998,-0.54609 0.37056,-1.067668 0.70117,-1.529296 0.33062,-0.461629 0.75155,-0.863103 1.2461,-1.169922 0.65916,-0.40894 1.37834,-0.641244 2.11328,-0.716797 0.73493,-0.07555 1.48551,0.0046 2.20508,0.216797 0.71957,0.212201 1.40841,0.557393 2.02148,1.011718 0.61307,0.454326 1.15097,1.017151 1.56641,1.667969 0.52277,0.81899 0.82964,1.695773 0.94726,2.576172 0.11763,0.880399 0.0453,1.765617 -0.19336,2.603516 -0.23863,0.837898 -0.64345,1.628823 -1.18945,2.320312 -0.546,0.69149 -1.23265,1.283438 -2.03711,1.724609 -0.9743,0.534328 -2.02427,0.821459 -3.08789,0.892579 -1.06361,0.07112 -2.14058,-0.07391 -3.16601,-0.40625 -1.02544,-0.332341 -1.9996,-0.851291 -2.85938,-1.527344 -0.85978,-0.676053 -1.60524,-1.508732 -2.17187,-2.46875 -0.66777,-1.131349 -1.05076,-2.33238 -1.17969,-3.533203 -0.12893,-1.200824 -0.004,-2.402248 0.34375,-3.533203 0.3479,-1.130956 0.91891,-2.191537 1.68164,-3.113282 0.76273,-0.921745 1.71648,-1.704151 2.83203,-2.277343 1.28794,-0.661779 2.67004,-1.008899 4.0625,-1.076172 1.39246,-0.06727 2.79687,0.14482 4.12891,0.597656 1.33204,0.452836 2.59252,1.146374 3.69922,2.044922 1.10669,0.898548 2.05897,2.001621 2.77539,3.271484 0.40699,0.721465 0.72504,1.464753 0.95898,2.216797 0.23394,0.752044 0.38282,1.512741 0.45313,2.273438 0.14061,1.521393 -0.0348,3.038451 -0.49219,4.46289 -0.45736,1.42444 -1.19585,2.756135 -2.17578,3.908203 -0.97994,1.152069 -2.2018,2.125797 -3.62891,2.830078 -0.8005,0.395051 -1.62938,0.692525 -2.47266,0.900391 -0.84327,0.207867 -1.7018,0.325581 -2.5625,0.357422 -1.72139,0.06368 -3.45285,-0.213634 -5.09179,-0.787109 -1.63895,-0.573476 -3.1854,-1.443085 -4.53907,-2.564454 -0.67683,-0.560684 -1.30556,-1.184313 -1.87304,-1.865234 -0.56748,-0.680921 -1.07309,-1.418985 -1.50586,-2.208984 -0.78869,-1.439675 -1.29364,-2.961562 -1.5332,-4.498047 -0.23957,-1.536485 -0.21393,-3.088487 0.0605,-4.587891 0.27448,-1.499404 0.79735,-2.946959 1.55078,-4.27539 0.75343,-1.328432 1.73825,-2.53698 2.93555,-3.560547 1.17085,-1.053715 2.12243,-2.287586 2.8418,-3.634766 0.71936,-1.34718 1.20519,-2.808548 1.4414,-4.314453 0.23622,-1.505905 0.22391,-3.056049 -0.0547,-4.585938 -0.11937,-0.655476 -0.48902,-1.267942 -0.70704,-1.910156 -2.17611,-2.569973 -4.28549,-5.136777 -6.63671,-7.710937 z m 45.91796,72.275391 c -0.28965,0.0323 -0.58714,0.0164 -0.87304,0.0664 -0.87312,0.15279 -1.72743,0.3878 -2.55078,0.69531 -1.64671,0.61501 -3.17255,1.52286 -4.48633,2.6582 -1.11283,0.96168 -1.97084,2.15831 -2.72656,3.40625 1.15285,1.82233 2.2556,3.63905 3.26367,5.44336 0.0901,-0.89693 0.24546,-1.78211 0.63086,-2.57031 0.46824,-0.95764 1.13064,-1.81944 1.92968,-2.54297 0.79905,-0.72353 1.73352,-1.30814 2.74805,-1.7168 1.01453,-0.40865 2.10796,-0.64129 3.22266,-0.65429 0.28668,-0.003 0.51843,0.13926 0.79687,0.1621 -0.58523,-1.62348 -1.3123,-3.30058 -1.95508,-4.94726 z m 1.95508,4.94726 c -0.27844,-0.0228 -0.51019,-0.16545 -0.79687,-0.1621 -1.1147,0.013 -2.20813,0.24564 -3.22266,0.65429 -1.01453,0.40866 -1.949,0.99327 -2.74805,1.7168 -0.79904,0.72353 -1.46144,1.58533 -1.92968,2.54297 -0.3854,0.7882 -0.54077,1.67338 -0.63086,2.57031 1.19713,2.1427 2.24897,4.26312 3.25781,6.37891 0.23578,0.13467 0.41388,0.34906 0.66797,0.45312 0.82195,0.33665 1.73451,0.50423 2.70508,0.45899 0.77127,-0.036 1.52915,-0.22018 2.22851,-0.52539 0.69937,-0.30522 1.34032,-0.72987 1.88281,-1.24805 0.5425,-0.51819 0.98647,-1.12982 1.28711,-1.80469 0.23228,-0.52138 0.29102,-1.10628 0.33399,-1.6914 -0.30943,-1.01729 -0.59616,-2.02046 -0.92774,-3.04883 -0.12419,-0.15458 -0.19978,-0.3469 -0.34375,-0.48243 -0.40873,-0.38476 -0.89438,-0.68702 -1.43359,-0.87304 -0.53921,-0.18602 -1.13278,-0.25538 -1.75976,-0.17578 -0.85447,0.10847 -1.68671,0.54665 -2.26368,1.17578 -0.28848,0.31456 -0.51308,0.67718 -0.64453,1.07031 -0.13144,0.39314 -0.16998,0.81659 -0.0859,1.25391 0.094,0.48895 0.40995,0.98393 0.83985,1.28711 0.4299,0.30317 0.9743,0.41484 1.52148,0.13867 0.20192,-0.10193 0.42983,-0.39489 0.51367,-0.66992 0,0 0,0 0,0 -0.0838,0.27503 -0.31175,0.56799 -0.51367,0.66992 -0.54718,0.27617 -1.09158,0.1645 -1.52148,-0.13867 -0.4299,-0.30318 -0.74588,-0.79816 -0.83985,-1.28711 -0.084,-0.43732 -0.0455,-0.86077 0.0859,-1.25391 0.13145,-0.39313 0.35605,-0.75575 0.64453,-1.07031 0.57697,-0.62913 1.40921,-1.06731 2.26368,-1.17578 0.62698,-0.0796 1.22055,-0.0102 1.75976,0.17578 0.53921,0.18602 1.02486,0.48828 1.43359,0.87304 0.14397,0.13553 0.21956,0.32785 0.34375,0.48243 -0.67385,-2.08993 -1.33848,-4.16184 -2.10742,-6.29493 z m 3.03516,9.34376 c -0.043,0.58512 -0.10171,1.17002 -0.33399,1.6914 -0.30064,0.67487 -0.74461,1.2865 -1.28711,1.80469 -0.54249,0.51818 -1.18344,0.94283 -1.88281,1.24805 -0.69936,0.30521 -1.45724,0.48943 -2.22851,0.52539 -0.97057,0.0452 -1.88313,-0.12234 -2.70508,-0.45899 -0.25409,-0.10406 -0.43219,-0.31845 -0.66797,-0.45312 0.93079,1.95209 1.81888,3.89442 2.60352,5.82226 0.047,9.4e-4 0.0895,0.0153 0.13671,0.0156 1.45797,0.0115 2.8883,-0.26546 4.21875,-0.77735 1.33046,-0.51189 2.56092,-1.25816 3.61719,-2.1875 0.21486,-0.18903 0.32358,-0.4643 0.52344,-0.66796 -0.56753,-2.13499 -1.3282,-4.37309 -1.99414,-6.5625 z m 1.99414,6.5625 c -0.19986,0.20366 -0.30858,0.47893 -0.52344,0.66796 -1.05627,0.92934 -2.28673,1.67561 -3.61719,2.1875 -1.33045,0.51189 -2.76078,0.78884 -4.21875,0.77735 -0.0472,-3.7e-4 -0.0897,-0.0147 -0.13671,-0.0156 1.72642,4.24182 3.13787,8.42461 4.26171,12.53906 0.70268,-1.0556 1.40421,-2.12342 2.3711,-2.95898 1.25528,-1.08478 2.72231,-1.92662 4.28515,-2.53906 -0.70708,-3.48736 -1.44776,-6.99369 -2.42187,-10.6582 z m 2.42187,10.6582 c -1.56284,0.61244 -3.02987,1.45428 -4.28515,2.53906 -0.96689,0.83556 -1.66842,1.90338 -2.3711,2.95898 1.52624,5.58763 2.59339,11.05203 3.32227,16.375 0.35233,0.21164 0.60692,0.54789 0.98437,0.72071 0.6946,0.31802 1.43061,0.56841 2.19922,0.74023 0.76862,0.17183 1.57012,0.26496 2.39844,0.27149 0.29503,0.002 0.56132,-0.13737 0.85352,-0.15821 -0.0934,-1.588 -0.15263,-3.12907 -0.29883,-4.78125 -0.93923,0.0319 -1.82876,-0.1184 -2.62695,-0.44531 -0.82196,-0.33664 -1.55255,-0.84048 -2.16016,-1.46484 -0.60761,-0.62437 -1.09239,-1.36958 -1.41992,-2.1875 -0.32754,-0.81792 -0.49875,-1.70965 -0.48047,-2.62696 0.0221,-1.11098 0.29738,-2.1654 0.76562,-3.12304 0.46825,-0.95765 1.13065,-1.81749 1.92969,-2.54102 0.64114,-0.58054 1.41788,-0.99594 2.20508,-1.3789 -0.0446,-0.25648 -0.0575,-0.48665 -0.10352,-0.74414 -0.23912,-1.33683 -0.63508,-2.78801 -0.91211,-4.1543 z m 1.01563,4.89844 c -0.7872,0.38296 -1.56394,0.79836 -2.20508,1.3789 -0.79904,0.72353 -1.46144,1.58337 -1.92969,2.54102 -0.46824,0.95764 -0.74349,2.01206 -0.76562,3.12304 -0.0183,0.91731 0.15293,1.80904 0.48047,2.62696 0.32753,0.81792 0.81231,1.56313 1.41992,2.1875 0.60761,0.62436 1.3382,1.1282 2.16016,1.46484 0.79819,0.32691 1.68772,0.47725 2.62695,0.44531 -0.14477,-1.63595 -0.37425,-3.33256 -0.57617,-5.02734 -0.0706,-0.0367 -0.16675,0.0248 -0.23242,-0.0215 -0.4299,-0.30318 -0.74589,-0.79816 -0.83985,-1.28711 -0.084,-0.43732 -0.0455,-0.86078 0.0859,-1.25391 0.1048,-0.31345 0.30527,-0.5878 0.51367,-0.85352 -0.24937,-1.77995 -0.41899,-3.48929 -0.73828,-5.32421 z m 0.73828,5.32421 c -0.2084,0.26572 -0.40887,0.54007 -0.51367,0.85352 -0.13145,0.39313 -0.16998,0.81659 -0.0859,1.25391 0.094,0.48895 0.40995,0.98393 0.83985,1.28711 0.0657,0.0463 0.16184,-0.0152 0.23242,0.0215 -0.13319,-1.11785 -0.31267,-2.27404 -0.47266,-3.41602 z m 1.34766,13.22461 c -0.2922,0.0208 -0.55849,0.16053 -0.85352,0.15821 -0.82832,-0.007 -1.62982,-0.0997 -2.39844,-0.27149 -0.76861,-0.17182 -1.50462,-0.42221 -2.19922,-0.74023 -0.37745,-0.17282 -0.63204,-0.50907 -0.98437,-0.72071 0.42862,3.1302 0.63843,6.11723 0.89063,9.14649 1.21796,0.53606 2.39268,1.16313 3.39257,2.00977 0.97189,0.82292 1.7456,1.84343 2.45313,2.90234 0.0689,-3.87368 -0.0398,-8.04762 -0.30078,-12.48438 z m 0.30078,12.48438 c -0.70753,-1.05891 -1.48124,-2.07942 -2.45313,-2.90234 -0.99989,-0.84664 -2.17461,-1.47371 -3.39257,-2.00977 0.17705,2.12672 0.43374,4.30876 0.55468,6.38281 0.039,0.0402 0.0985,0.0567 0.13672,0.0977 0.80727,0.86511 1.44213,1.88921 1.86133,3.00976 0.4192,1.12056 0.62325,2.33899 0.56445,3.5918 -0.0679,1.44642 -0.45638,2.81579 -1.09179,4.05664 -0.21853,0.42675 -0.61077,0.73489 -0.88477,1.12891 0.24765,5.72844 0.52879,11.293 1.15039,16.49219 0,0 3.23089,-11.63663 3.55469,-29.84766 z M 202.25,196.42969 c 0.274,-0.39402 0.66624,-0.70216 0.88477,-1.12891 0.63541,-1.24085 1.02391,-2.61022 1.09179,-4.05664 0.0588,-1.25281 -0.14525,-2.47124 -0.56445,-3.5918 -0.4192,-1.12055 -1.05406,-2.14465 -1.86133,-3.00976 -0.0382,-0.041 -0.0977,-0.0574 -0.13672,-0.0977 0.23845,4.08905 0.41862,8.01439 0.58594,11.88477 z m -22.84375,-79.97071 c 0.0321,-0.0258 0.0736,-0.0344 0.10547,-0.0605 1.20338,-0.98491 2.25787,-2.1903 3.09961,-3.59961 0.46189,-0.77334 0.84297,-1.58375 1.14258,-2.41797 0.2996,-0.83422 0.51766,-1.69296 0.6582,-2.56055 0.28108,-1.73518 0.24794,-3.50929 -0.0879,-5.21289 -0.33583,-1.70359 -0.97345,-3.337157 -1.90039,-4.789061 -0.46347,-0.725952 -0.99906,-1.405583 -1.60547,-2.027343 -0.60641,-0.621761 -1.28317,-1.185725 -2.0293,-1.675782 -1.33018,-0.87366 -2.7876,-1.434042 -4.27734,-1.695312 -1.48974,-0.261271 -3.01282,-0.223756 -4.47266,0.103516 -1.45984,0.327271 -2.85717,0.943972 -4.09765,1.835937 -0.62024,0.445983 -1.20059,0.960284 -1.73047,1.542969 -0.44584,0.490272 -0.83084,1.055516 -1.19727,1.640625 1.22791,1.205633 2.49496,2.413124 3.64453,3.613281 0.0447,-0.10098 0.0435,-0.21583 0.0937,-0.31445 0.44129,-0.865629 1.0388,-1.575637 1.73828,-2.12305 0.69949,-0.547413 1.50044,-0.931671 2.34375,-1.150391 0.84332,-0.218719 1.73073,-0.270843 2.60352,-0.15039 0.87279,0.120453 1.73163,0.412707 2.51953,0.882812 0.95426,0.56936 1.73385,1.32993 2.33399,2.210939 0.60013,0.88101 1.02096,1.88307 1.2539,2.93555 0.23294,1.05247 0.27819,2.15451 0.13086,3.23828 -0.14733,1.08377 -0.48863,2.14816 -1.0293,3.12304 -0.57723,1.04082 -1.36051,1.85391 -2.21679,2.54297 1.07441,1.37745 1.99335,2.73888 2.97656,4.10742 z m -2.97656,-4.10742 c 0.85628,-0.68906 1.63956,-1.50215 2.21679,-2.54297 0.54067,-0.97488 0.88197,-2.03927 1.0293,-3.12304 0.14733,-1.08377 0.10208,-2.18581 -0.13086,-3.23828 -0.23294,-1.05248 -0.65377,-2.05454 -1.2539,-2.93555 -0.60014,-0.881009 -1.37973,-1.641579 -2.33399,-2.210939 -0.7879,-0.470105 -1.64674,-0.762359 -2.51953,-0.882812 -0.87279,-0.120453 -1.7602,-0.06833 -2.60352,0.15039 -0.84331,0.21872 -1.64426,0.602978 -2.34375,1.150391 -0.69948,0.547413 -1.29699,1.257421 -1.73828,2.12305 -0.0503,0.0986 -0.0491,0.21347 -0.0937,0.31445 2.36038,2.46424 4.5074,4.91204 6.55469,7.35156 0.14203,-0.0946 0.31374,-0.13228 0.44336,-0.24609 0.42862,-0.37636 0.78408,-0.85727 1.02539,-1.44141 0.32886,-0.79607 0.36049,-1.73603 0.0996,-2.54883 -0.13044,-0.40639 -0.33291,-0.78097 -0.60937,-1.08984 -0.27647,-0.30887 -0.62728,-0.55178 -1.04883,-0.69531 -0.47141,-0.16062 -1.05692,-0.13154 -1.53321,0.0918 -0.47629,0.22334 -0.84202,0.63981 -0.87304,1.25196 -0.0114,0.2259 0.12874,0.57026 0.32617,0.7793 0,0 0,0 0,0 -0.19743,-0.20904 -0.33761,-0.5534 -0.32617,-0.7793 0.031,-0.61215 0.39675,-1.02862 0.87304,-1.25196 0.47629,-0.22333 1.0618,-0.25241 1.53321,-0.0918 0.42155,0.14353 0.77236,0.38644 1.04883,0.69531 0.27646,0.30887 0.47893,0.68345 0.60937,1.08984 0.26088,0.8128 0.22925,1.75276 -0.0996,2.54883 -0.24131,0.58414 -0.59677,1.06505 -1.02539,1.44141 -0.12962,0.11381 -0.30133,0.15152 -0.44336,0.24609 1.07594,1.28207 2.22246,2.56897 3.2168,3.84375 z M 138.23633,63.816406 c 1.22928,0.338991 2.49603,0.54047 3.75781,0.447266 1.39029,-0.102697 2.76252,-0.483391 4.0332,-1.177734 1.1006,-0.601404 2.03443,-1.408749 2.77344,-2.34961 0.73901,-0.940861 1.28452,-2.014853 1.60352,-3.154297 0.31899,-1.139443 0.41336,-2.343864 0.2539,-3.541015 -0.15945,-1.197152 -0.57319,-2.387968 -1.26953,-3.501954 -0.59089,-0.945284 -1.35766,-1.75816 -2.23437,-2.412109 -0.87671,-0.653949 -1.86292,-1.148948 -2.89649,-1.455078 -1.03356,-0.30613 -2.11432,-0.424345 -3.17578,-0.326172 -0.64278,0.05945 -1.24042,0.365503 -1.85547,0.589844 0.25033,4.232916 -0.037,8.197207 -0.49804,11.921875 0.24207,0.0979 0.45658,0.265055 0.70703,0.332031 0.72474,0.193817 1.47621,0.254395 2.20898,0.160156 0.73277,-0.09424 1.44522,-0.343939 2.09375,-0.769531 0.48658,-0.319309 0.89804,-0.731275 1.2168,-1.201172 0.31875,-0.469896 0.54607,-0.997651 0.66211,-1.546875 0.11603,-0.549223 0.12158,-1.120444 0,-1.677734 -0.12159,-0.55729 -0.37153,-1.099654 -0.76563,-1.59375 -0.53708,-0.673366 -1.34226,-1.158661 -2.17968,-1.324219 -0.41872,-0.08278 -0.84587,-0.0844 -1.25,0.0078 -0.40414,0.09221 -0.78545,0.278889 -1.11524,0.578125 -0.36873,0.334563 -0.62677,0.861854 -0.66211,1.386718 -0.0353,0.524865 0.1514,1.047395 0.67188,1.371094 0.19208,0.119441 0.5613,0.163248 0.83984,0.0918 0,0 0,0 0,0 -0.27854,0.07145 -0.64776,0.02764 -0.83984,-0.0918 -0.52048,-0.323699 -0.70722,-0.846229 -0.67188,-1.371094 0.0353,-0.524864 0.29338,-1.052155 0.66211,-1.386718 0.32979,-0.299236 0.7111,-0.485911 1.11524,-0.578125 0.40413,-0.09221 0.83128,-0.09059 1.25,-0.0078 0.83742,0.165558 1.6426,0.650853 2.17968,1.324219 0.3941,0.494096 0.64404,1.03646 0.76563,1.59375 0.12158,0.55729 0.11603,1.128511 0,1.677734 -0.11604,0.549224 -0.34336,1.076979 -0.66211,1.546875 -0.31876,0.469897 -0.73022,0.881863 -1.2168,1.201172 -0.64853,0.425592 -1.36098,0.675293 -2.09375,0.769531 -0.73277,0.09424 -1.48424,0.03366 -2.20898,-0.160156 -0.25045,-0.06698 -0.46496,-0.234135 -0.70703,-0.332031 -0.20768,1.677626 -0.40191,3.334463 -0.49219,4.958984 z"
       inkscape:connector-curvature="0" />
  </g>
  <g
     inkscape:groupmode="layer"
     id="layer2"
     inkscape:label="Layer 2"
     style="display:inline">
    <g
       id="g5682"
       transform="translate(3.0903921,23.950539)">
      <path
         sodipodi:nodetypes="ccccc"
         inkscape:connector-curvature="0"
         id="path4495"
         d="m 28.586125,48.738498 3.283543,25.431353 c 14.609843,2.464829 23.578378,1.422898 31.934052,0 l 3.541075,-25.302585 c -12.524336,1.537962 -25.376984,1.762671 -38.75867,-0.128768 z"
         style="fill:#808080;fill-opacity:0.98431373;stroke:#f2f2f2;stroke-width:0.26458332px;stroke-linecap:butt;stroke-linejoin:miter;stroke-opacity:1" />
      <path
         sodipodi:nodetypes="ccccc"
         inkscape:connector-curvature="0"
         id="path4493"
         d="m 24.948125,42.214998 c 1.547877,6.214267 1.547877,6.214267 1.547877,6.214267 13.263175,2.094185 29.531052,2.276288 43.067382,0.09105 l 1.593404,-6.373606 c -4.349441,3.090434 -41.442732,3.387798 -46.208663,0.06829 z"
         style="fill:#808080;fill-opacity:0.98431373;stroke:#f2f2f2;stroke-width:0.26458332px;stroke-linecap:butt;stroke-linejoin:miter;stroke-opacity:1" />
    </g>
  </g>
</svg>
